<?xml version="1.0" encoding="UTF-8"?>
<svg xmlns="http://www.w3.org/2000/svg" id="Layer_1" data-name="Layer 1" viewBox="0 0 24 24">
  <path d="M23.989,12.521c-.275,6.437-5.542,11.479-11.989,11.479C5.383,24,0,18.617,0,12S5.383,0,12,0c4.04,0,7.789,2.066,10,5.414V.5c0-.276,.224-.5,.5-.5s.5,.224,.5,.5V5.5c0,.827-.673,1.5-1.5,1.5h-5c-.276,0-.5-.224-.5-.5s.224-.5,.5-.5h4.692C19.169,2.909,15.718,1,12,1,5.935,1,1,5.935,1,12s4.935,11,11,11c5.91,0,10.737-4.621,10.99-10.521,.012-.275,.246-.477,.521-.479,.276,.013,.49,.245,.478,.521Z"/>
</svg>
